<svg width="63" height="63" viewBox="0 0 63 63" fill="none" xmlns="http://www.w3.org/2000/svg">
<path d="M7.81726 47.25V31.5C7.81726 25.2343 10.2881 19.2251 14.6862 14.7946C19.0843 10.3641 25.0493 7.875 31.2692 7.875C37.489 7.875 43.4541 10.3641 47.8522 14.7946C52.2503 19.2251 54.7211 25.2343 54.7211 31.5V47.25M54.7211 49.875C54.7211 51.2674 54.172 52.6027 53.1947 53.5873C52.2173 54.5719 50.8918 55.125 49.5096 55.125H46.9038C45.5216 55.125 44.196 54.5719 43.2187 53.5873C42.2413 52.6027 41.6923 51.2674 41.6923 49.875V42C41.6923 40.6076 42.2413 39.2723 43.2187 38.2877C44.196 37.3031 45.5216 36.75 46.9038 36.75H54.7211V49.875ZM7.81726 49.875C7.81726 51.2674 8.36633 52.6027 9.34368 53.5873C10.321 54.5719 11.6466 55.125 13.0288 55.125H15.6346C17.0168 55.125 18.3423 54.5719 19.3197 53.5873C20.297 52.6027 20.8461 51.2674 20.8461 49.875V42C20.8461 40.6076 20.297 39.2723 19.3197 38.2877C18.3423 37.3031 17.0168 36.75 15.6346 36.75H7.81726V49.875Z" stroke="#312783" stroke-width="4" stroke-linecap="round" stroke-linejoin="round"/>
</svg>
