<svg width="62" height="62" viewBox="0 0 62 62" fill="none" xmlns="http://www.w3.org/2000/svg">
<path d="M2 50.3333V31C2 23.3087 5.05535 15.9325 10.4939 10.4939C15.9325 5.05535 23.3087 2 31 2C38.6913 2 46.0675 5.05535 51.5061 10.4939C56.9447 15.9325 60 23.3087 60 31V50.3333M60 53.5556C60 55.2647 59.321 56.9039 58.1125 58.1125C56.9039 59.321 55.2647 60 53.5556 60H50.3333C48.6242 60 46.985 59.321 45.7764 58.1125C44.5679 56.9039 43.8889 55.2647 43.8889 53.5556V43.8889C43.8889 42.1797 44.5679 40.5405 45.7764 39.332C46.985 38.1234 48.6242 37.4444 50.3333 37.4444H60V53.5556ZM2 53.5556C2 55.2647 2.67897 56.9039 3.88753 58.1125C5.0961 59.321 6.73527 60 8.44444 60H11.6667C13.3758 60 15.015 59.321 16.2236 58.1125C17.4321 56.9039 18.1111 55.2647 18.1111 53.5556V43.8889C18.1111 42.1797 17.4321 40.5405 16.2236 39.332C15.015 38.1234 13.3758 37.4444 11.6667 37.4444H2V53.5556Z" stroke="white" stroke-width="4" stroke-linecap="round" stroke-linejoin="round"/>
</svg>
