<svg width="63" height="63" viewBox="0 0 63 63" fill="none" xmlns="http://www.w3.org/2000/svg">
<g clip-path="url(#clip0_46_106)">
<path d="M41.6923 42V7.875H2.60571V42H41.6923ZM41.6923 42H59.9326V28.875L52.1153 21H41.6923V42ZM20.8461 48.5625C20.8461 52.1869 17.9295 55.125 14.3317 55.125C10.7339 55.125 7.81725 52.1869 7.81725 48.5625C7.81725 44.9381 10.7339 42 14.3317 42C17.9295 42 20.8461 44.9381 20.8461 48.5625ZM54.7211 48.5625C54.7211 52.1869 51.8045 55.125 48.2067 55.125C44.6089 55.125 41.6923 52.1869 41.6923 48.5625C41.6923 44.9381 44.6089 42 48.2067 42C51.8045 42 54.7211 44.9381 54.7211 48.5625Z" stroke="#312783" stroke-width="4" stroke-linecap="round" stroke-linejoin="round"/>
</g>
<defs>
<clipPath id="clip0_46_106">
<rect width="62.5385" height="63" fill="white"/>
</clipPath>
</defs>
</svg>
