<svg width="22" height="15" viewBox="0 0 22 15" fill="none" xmlns="http://www.w3.org/2000/svg">
<path fill-rule="evenodd" clip-rule="evenodd" d="M2.26249 14.5568C1.87023 14.4408 1.51232 14.2343 1.21896 13.9549C0.925599 13.6754 0.705403 13.3312 0.576947 12.9512C-0.157079 10.9874 -0.374569 2.78693 1.03911 1.16807C1.50961 0.641449 2.17389 0.317218 2.88777 0.265759C6.68024 -0.13232 18.3975 -0.0792426 19.7432 0.398453C20.1217 0.518323 20.4675 0.720256 20.7547 0.989122C21.0419 1.25799 21.263 1.58681 21.4015 1.95096C22.2035 3.98117 22.2307 11.3589 21.2928 13.3095C21.044 13.8173 20.6275 14.2285 20.1102 14.4772C18.6965 15.1672 4.13833 15.1539 2.26249 14.5568V14.5568ZM8.28422 10.7087L15.0808 7.25869L8.28422 3.78213V10.7087Z" fill="white"/>
</svg>
