<svg width="205" height="71" viewBox="0 0 205 71" fill="none" xmlns="http://www.w3.org/2000/svg">
<g clip-path="url(#clip0_167_25)">
<path d="M14.7799 26.4C18.9828 26.4 22.3899 22.9929 22.3899 18.79C22.3899 14.5871 18.9828 11.18 14.7799 11.18C10.577 11.18 7.16992 14.5871 7.16992 18.79C7.16992 22.9929 10.577 26.4 14.7799 26.4Z" fill="#312783"/>
<path d="M59.0499 26.26C63.2528 26.26 66.6599 22.8529 66.6599 18.65C66.6599 14.4471 63.2528 11.04 59.0499 11.04C54.8471 11.04 51.4399 14.4471 51.4399 18.65C51.4399 22.8529 54.8471 26.26 59.0499 26.26Z" fill="#312783"/>
<path d="M36.9801 48.25C41.183 48.25 44.5901 44.8429 44.5901 40.64C44.5901 36.4371 41.183 33.03 36.9801 33.03C32.7772 33.03 29.3701 36.4371 29.3701 40.64C29.3701 44.8429 32.7772 48.25 36.9801 48.25Z" fill="#312783"/>
<path d="M14.84 70.74C19.0429 70.74 22.45 67.3329 22.45 63.13C22.45 58.9271 19.0429 55.52 14.84 55.52C10.6371 55.52 7.22998 58.9271 7.22998 63.13C7.22998 67.3329 10.6371 70.74 14.84 70.74Z" fill="#312783"/>
<path d="M59.11 70.6C63.3129 70.6 66.72 67.1929 66.72 62.99C66.72 58.7871 63.3129 55.38 59.11 55.38C54.9071 55.38 51.5 58.7871 51.5 62.99C51.5 67.1929 54.9071 70.6 59.11 70.6Z" fill="#312783"/>
<path d="M2.85 37.76H22.07V44.16H2.85C1.28 44.16 0 42.88 0 41.31V40.6C0 39.03 1.28 37.76 2.85 37.76Z" fill="#312783"/>
<path d="M71.11 44.02H51.89V37.62H71.11C72.68 37.62 73.96 38.9 73.96 40.47V41.18C73.96 42.75 72.68 44.03 71.11 44.03V44.02Z" fill="#312783"/>
<path d="M40.1199 2.85V22.07H33.7199V2.85C33.7199 1.28 34.9999 0 36.5699 0L37.2799 0C38.8499 0 40.1299 1.28 40.1299 2.85H40.1199Z" fill="#312783"/>
<path d="M33.6946 35.2238L19.8777 21.4069L17.4382 23.8464L31.255 37.6633L33.6946 35.2238Z" fill="#312783"/>
<path d="M56.3816 57.9011L42.5647 44.0842L40.1252 46.5237L53.942 60.3406L56.3816 57.9011Z" fill="#312783"/>
<path d="M42.5591 37.6617L56.376 23.8448L53.9365 21.4053L40.1196 35.2222L42.5591 37.6617Z" fill="#312783"/>
<path d="M19.886 60.3444L33.7029 46.5275L31.2634 44.088L17.4465 57.9049L19.886 60.3444Z" fill="#312783"/>
<path d="M102.07 43.17C98.0499 43.17 94.9299 42.3 92.7199 40.56C90.5099 38.82 89.3999 36.31 89.3999 33.03V32.33C89.3999 29.05 90.5099 26.54 92.7199 24.8C94.9299 23.06 98.0499 22.19 102.07 22.19C106.09 22.19 109.22 23.06 111.43 24.8C113.64 26.54 114.74 29.05 114.74 32.33V33.03C114.74 36.31 113.64 38.82 111.43 40.56C109.22 42.3 106.1 43.17 102.07 43.17ZM102.07 39.99C105.01 39.99 107.29 39.4 108.91 38.21C110.53 37.02 111.34 35.3 111.34 33.02V32.32C111.34 30.05 110.53 28.32 108.91 27.13C107.29 25.94 105.01 25.35 102.07 25.35C99.1299 25.35 96.8599 25.94 95.2399 27.13C93.6199 28.32 92.8099 30.04 92.8099 32.32V33.02C92.8099 35.29 93.6199 37.02 95.2399 38.21C96.8599 39.4 99.1399 39.99 102.07 39.99ZM100.28 45.9V19.46H103.87V45.9H100.28Z" fill="#312783"/>
<path d="M127.24 46.15C125.44 46.15 123.86 45.76 122.51 44.98C121.16 44.2 120.12 43.1 119.37 41.68C118.62 40.26 118.25 38.61 118.25 36.72V29.48C118.25 27.58 118.62 25.93 119.37 24.51C120.12 23.09 121.16 22 122.51 21.22C123.86 20.44 125.43 20.05 127.24 20.05C129.05 20.05 130.62 20.44 131.97 21.22C133.32 22 134.36 23.1 135.11 24.51C135.86 25.92 136.23 27.58 136.23 29.48V36.72C136.23 38.61 135.86 40.26 135.11 41.68C134.36 43.1 133.32 44.2 131.97 44.98C130.62 45.76 129.05 46.15 127.24 46.15ZM127.24 42.62C128.85 42.62 130.13 42.09 131.1 41.04C132.07 39.99 132.55 38.59 132.55 36.86V29.37C132.55 27.62 132.07 26.23 131.1 25.18C130.13 24.13 128.85 23.61 127.24 23.61C125.63 23.61 124.36 24.13 123.39 25.18C122.42 26.23 121.93 27.63 121.93 29.37V36.86C121.93 38.59 122.42 39.99 123.39 41.04C124.36 42.09 125.65 42.62 127.24 42.62Z" fill="#312783"/>
<path d="M141.67 45.89V20.33H145.26V45.89H141.67ZM143.41 34.9V31.49H151.41V34.9H143.41ZM156.28 45.89L148.25 34.64L151.4 32.79L161.26 45.89H156.29H156.28ZM150.07 35.01L148.26 31.86L155.68 20.33H160.18L150.07 35.01Z" fill="#312783"/>
<path d="M172.63 41.5L163.37 20.34H167.45L174.96 38.64L172.64 41.51L172.63 41.5ZM183.76 20.34L176.29 40.61C175.62 42.41 174.79 43.79 173.8 44.74C172.81 45.69 171.51 46.16 169.89 46.16H166.92V42.63H169.89C170.71 42.63 171.39 42.34 171.93 41.76C172.47 41.18 172.93 40.33 173.32 39.22L179.86 20.34H183.76Z" fill="#312783"/>
<path d="M195.46 46.15C193.68 46.15 192.12 45.75 190.78 44.96C189.44 44.17 188.41 43.06 187.67 41.63C186.93 40.2 186.56 38.53 186.56 36.62V29.61C186.56 27.69 186.93 26.01 187.67 24.58C188.41 23.15 189.45 22.04 190.78 21.25C192.11 20.46 193.67 20.06 195.46 20.06C196.94 20.06 198.29 20.38 199.51 21.01C200.73 21.64 201.76 22.53 202.59 23.66C203.42 24.79 203.98 26.13 204.27 27.65H200.6C200.38 26.83 200.01 26.11 199.48 25.5C198.95 24.89 198.35 24.41 197.64 24.07C196.93 23.73 196.21 23.56 195.46 23.56C193.89 23.56 192.63 24.11 191.67 25.22C190.71 26.33 190.24 27.79 190.24 29.61V36.62C190.24 38.44 190.72 39.9 191.67 41C192.62 42.1 193.89 42.65 195.46 42.65C196.57 42.65 197.62 42.3 198.61 41.6C199.6 40.9 200.26 39.88 200.6 38.56H204.27C203.98 40.08 203.41 41.41 202.58 42.55C201.75 43.69 200.72 44.57 199.5 45.2C198.28 45.83 196.93 46.15 195.46 46.15Z" fill="#312783"/>
</g>
<defs>
<clipPath id="clip0_167_25">
<rect width="204.27" height="70.74" fill="white"/>
</clipPath>
</defs>
</svg>
