<svg width="18" height="18" viewBox="0 0 18 18" fill="none" xmlns="http://www.w3.org/2000/svg">
<path d="M16.7166 9.56625C16.5789 11.0557 16.02 12.4751 15.1051 13.6584C14.1901 14.8418 12.9571 15.7401 11.5503 16.2482C10.1435 16.7564 8.62107 16.8534 7.16115 16.5278C5.70123 16.2023 4.36421 15.4677 3.30654 14.4101C2.24886 13.3524 1.51429 12.0154 1.18876 10.5554C0.86323 9.09551 0.960215 7.57307 1.46837 6.16626C1.97652 4.75945 2.87482 3.52645 4.05815 2.61153C5.24148 1.69662 6.66091 1.13764 8.15034 1C7.27832 2.17973 6.85871 3.63327 6.9678 5.09624C7.0769 6.55921 7.70747 7.93443 8.74482 8.97177C9.78216 10.0091 11.1574 10.6397 12.6204 10.7488C14.0833 10.8579 15.5369 10.4383 16.7166 9.56625Z" fill="black" stroke="#1E1E1E" stroke-width="2" stroke-linecap="round" stroke-linejoin="round"/>
</svg>
